<mxfile host="app.diagrams.net" agent="Mozilla/5.0 (Windows NT 10.0; Win64; x64) AppleWebKit/537.36 (KHTML, like Gecko) Chrome/131.0.0.0 Safari/537.36 Edg/131.0.0.0" version="24.8.6" pages="2">
  <diagram name="Contexto" id="AVEoVpxxLmW9WM72w8hO">
    <mxGraphModel dx="1042" dy="531" grid="1" gridSize="10" guides="1" tooltips="1" connect="1" arrows="1" fold="1" page="1" pageScale="1" pageWidth="827" pageHeight="1169" math="0" shadow="0">
      <root>
        <mxCell id="0" />
        <mxCell id="1" parent="0" />
        <object placeholders="1" c4Name="Financeiro" c4Type="Person" c4Description="Registra e consulta &#xa;movimentos &#xa;e saldos" label="&lt;b&gt;%c4Name%&lt;/b&gt;&lt;div&gt;[%c4Type%]&lt;/div&gt;&lt;br&gt;&lt;div&gt;%c4Description%&lt;/div&gt;" id="VBhZoKuInoZ7KlQpQfMy-1">
          <mxCell style="html=1;dashed=0;whitespace=wrap;fillColor=#08427b;strokeColor=none;fontColor=#ffffff;shape=mxgraph.c4.person;align=center;metaEdit=1;points=[[0.5,0,0],[1,0.5,0],[1,0.75,0],[0.75,1,0],[0.5,1,0],[0.25,1,0],[0,0.75,0],[0,0.5,0]];metaData={&quot;c4Type&quot;:{&quot;editable&quot;:false}};" vertex="1" parent="1">
            <mxGeometry x="359" y="40" width="110.00000000000001" height="140" as="geometry" />
          </mxCell>
        </object>
        <object placeholders="1" c4Name="Fluxo de Caixa" c4Type="Software System" c4Description="Gerenciamento de Lançamentos, Consolidação de Dados e Relatórios e Consultas" label="&lt;b&gt;%c4Name%&lt;/b&gt;&lt;div&gt;[%c4Type%]&lt;/div&gt;&lt;br&gt;&lt;div&gt;%c4Description%&lt;/div&gt;" id="VBhZoKuInoZ7KlQpQfMy-2">
          <mxCell style="rounded=1;whiteSpace=wrap;html=1;labelBackgroundColor=none;fillColor=#1168BD;fontColor=#ffffff;align=center;arcSize=10;strokeColor=#1168BD;metaEdit=1;metaData={&quot;c4Type&quot;:{&quot;editable&quot;:false}};points=[[0.25,0,0],[0.5,0,0],[0.75,0,0],[1,0.25,0],[1,0.5,0],[1,0.75,0],[0.75,1,0],[0.5,1,0],[0.25,1,0],[0,0.75,0],[0,0.5,0],[0,0.25,0]];" vertex="1" parent="1">
            <mxGeometry x="334" y="280" width="160" height="110.00000000000001" as="geometry" />
          </mxCell>
        </object>
        <object placeholders="1" c4Name="Email" c4Type="Software System" c4Description="Envia notificações por email" label="&lt;b&gt;%c4Name%&lt;/b&gt;&lt;div&gt;[%c4Type%]&lt;/div&gt;&lt;br&gt;&lt;div&gt;%c4Description%&lt;/div&gt;" id="VBhZoKuInoZ7KlQpQfMy-3">
          <mxCell style="rounded=1;whiteSpace=wrap;html=1;labelBackgroundColor=none;fillColor=#999999;fontColor=#ffffff;align=center;arcSize=10;strokeColor=#8A8A8A;metaEdit=1;metaData={&quot;c4Type&quot;:{&quot;editable&quot;:false}};points=[[0.25,0,0],[0.5,0,0],[0.75,0,0],[1,0.25,0],[1,0.5,0],[1,0.75,0],[0.75,1,0],[0.5,1,0],[0.25,1,0],[0,0.75,0],[0,0.5,0],[0,0.25,0]];" vertex="1" parent="1">
            <mxGeometry x="90" y="280" width="160" height="110.00000000000001" as="geometry" />
          </mxCell>
        </object>
        <mxCell id="VBhZoKuInoZ7KlQpQfMy-4" style="edgeStyle=none;rounded=0;orthogonalLoop=1;jettySize=auto;html=1;dashed=1;strokeColor=#707070;strokeWidth=2;fontColor=#707070;entryX=0.5;entryY=0;entryDx=0;entryDy=0;entryPerimeter=0;" edge="1" parent="1" target="VBhZoKuInoZ7KlQpQfMy-2">
          <mxGeometry relative="1" as="geometry">
            <mxPoint x="414" y="240" as="targetPoint" />
            <mxPoint x="414" y="180" as="sourcePoint" />
          </mxGeometry>
        </mxCell>
        <mxCell id="VBhZoKuInoZ7KlQpQfMy-5" style="edgeStyle=none;rounded=0;orthogonalLoop=1;jettySize=auto;html=1;dashed=1;strokeColor=#707070;strokeWidth=2;fontColor=#707070;entryX=1;entryY=0.5;entryDx=0;entryDy=0;entryPerimeter=0;exitX=0;exitY=0.5;exitDx=0;exitDy=0;exitPerimeter=0;" edge="1" parent="1" source="VBhZoKuInoZ7KlQpQfMy-2" target="VBhZoKuInoZ7KlQpQfMy-3">
          <mxGeometry relative="1" as="geometry">
            <mxPoint x="424" y="250" as="targetPoint" />
            <mxPoint x="424" y="190" as="sourcePoint" />
          </mxGeometry>
        </mxCell>
        <mxCell id="VBhZoKuInoZ7KlQpQfMy-6" style="edgeStyle=none;rounded=0;orthogonalLoop=1;jettySize=auto;html=1;dashed=1;strokeColor=#707070;strokeWidth=2;fontColor=#707070;exitX=0.5;exitY=0;exitDx=0;exitDy=0;exitPerimeter=0;entryX=0.005;entryY=0.637;entryDx=0;entryDy=0;entryPerimeter=0;" edge="1" parent="1" source="VBhZoKuInoZ7KlQpQfMy-3" target="VBhZoKuInoZ7KlQpQfMy-1">
          <mxGeometry relative="1" as="geometry">
            <mxPoint x="434" y="260" as="targetPoint" />
            <mxPoint x="434" y="200" as="sourcePoint" />
          </mxGeometry>
        </mxCell>
        <mxCell id="VBhZoKuInoZ7KlQpQfMy-7" value="&lt;b&gt;[System Context] Fluxo de Caixa&lt;br&gt;&lt;/b&gt;" style="text;html=1;align=left;verticalAlign=middle;resizable=0;points=[];autosize=1;fontColor=#666666;" vertex="1" parent="1">
          <mxGeometry x="90" y="420" width="210" height="30" as="geometry" />
        </mxCell>
      </root>
    </mxGraphModel>
  </diagram>
  <diagram id="m-w9lFCozXcyLoC3PvQ0" name="Container">
    <mxGraphModel dx="3804" dy="1517" grid="1" gridSize="10" guides="1" tooltips="1" connect="1" arrows="1" fold="1" page="1" pageScale="1" pageWidth="827" pageHeight="1169" math="0" shadow="0">
      <root>
        <mxCell id="0" />
        <mxCell id="1" parent="0" />
        <object placeholders="1" c4Name="Financeiro" c4Type="Person" c4Description="Registra e consulta &#xa;movimentos &#xa;e saldos" label="&lt;b&gt;%c4Name%&lt;/b&gt;&lt;div&gt;[%c4Type%]&lt;/div&gt;&lt;br&gt;&lt;div&gt;%c4Description%&lt;/div&gt;" id="rJItDOL2bvnCdjiZiPUv-1">
          <mxCell style="html=1;dashed=0;whitespace=wrap;fillColor=#08427b;strokeColor=none;fontColor=#ffffff;shape=mxgraph.c4.person;align=center;metaEdit=1;points=[[0.5,0,0],[1,0.5,0],[1,0.75,0],[0.75,1,0],[0.5,1,0],[0.25,1,0],[0,0.75,0],[0,0.5,0]];metaData={&quot;c4Type&quot;:{&quot;editable&quot;:false}};" vertex="1" parent="1">
            <mxGeometry x="505" y="50" width="110.00000000000001" height="140" as="geometry" />
          </mxCell>
        </object>
        <object placeholders="1" c4Name="Email" c4Type="Software System" c4Description="Envia notificações por email" label="&lt;b&gt;%c4Name%&lt;/b&gt;&lt;div&gt;[%c4Type%]&lt;/div&gt;&lt;br&gt;&lt;div&gt;%c4Description%&lt;/div&gt;" id="rJItDOL2bvnCdjiZiPUv-2">
          <mxCell style="rounded=1;whiteSpace=wrap;html=1;labelBackgroundColor=none;fillColor=#999999;fontColor=#ffffff;align=center;arcSize=10;strokeColor=#8A8A8A;metaEdit=1;metaData={&quot;c4Type&quot;:{&quot;editable&quot;:false}};points=[[0.25,0,0],[0.5,0,0],[0.75,0,0],[1,0.25,0],[1,0.5,0],[1,0.75,0],[0.75,1,0],[0.5,1,0],[0.25,1,0],[0,0.75,0],[0,0.5,0],[0,0.25,0]];" vertex="1" parent="1">
            <mxGeometry x="-70" y="290" width="160" height="110.00000000000001" as="geometry" />
          </mxCell>
        </object>
        <mxCell id="rJItDOL2bvnCdjiZiPUv-3" style="edgeStyle=orthogonalEdgeStyle;rounded=0;orthogonalLoop=1;jettySize=auto;html=1;dashed=1;strokeColor=#707070;strokeWidth=2;fontColor=#707070;exitX=0.5;exitY=0;exitDx=0;exitDy=0;exitPerimeter=0;entryX=0.005;entryY=0.637;entryDx=0;entryDy=0;entryPerimeter=0;curved=1;" edge="1" parent="1" source="rJItDOL2bvnCdjiZiPUv-2" target="rJItDOL2bvnCdjiZiPUv-1">
          <mxGeometry relative="1" as="geometry">
            <mxPoint x="434" y="260" as="targetPoint" />
            <mxPoint x="434" y="200" as="sourcePoint" />
            <Array as="points">
              <mxPoint x="10" y="139" />
            </Array>
          </mxGeometry>
        </mxCell>
        <mxCell id="0SkZf_MoFUF0ub97Espe-1" value="Envia notificações para [email]" style="edgeLabel;html=1;align=center;verticalAlign=middle;resizable=0;points=[];rotation=-15;" vertex="1" connectable="0" parent="rJItDOL2bvnCdjiZiPUv-3">
          <mxGeometry x="-0.0309" y="2" relative="1" as="geometry">
            <mxPoint x="55" y="-7" as="offset" />
          </mxGeometry>
        </mxCell>
        <object placeholders="1" c4Name="Status Dashboard" c4Type="ExecutionEnvironment" c4Application="Container" label="&lt;div style=&quot;text-align: left&quot;&gt;%c4Name%&lt;/div&gt;&lt;div style=&quot;text-align: left&quot;&gt;[%c4Application%]&lt;/div&gt;" id="0SkZf_MoFUF0ub97Espe-2">
          <mxCell style="rounded=1;whiteSpace=wrap;html=1;labelBackgroundColor=none;fillColor=#ffffff;fontColor=#000000;align=left;arcSize=2;strokeColor=#000000;verticalAlign=bottom;metaEdit=1;metaData={&quot;c4Type&quot;:{&quot;editable&quot;:false}};points=[[0.25,0,0],[0.5,0,0],[0.75,0,0],[1,0.25,0],[1,0.5,0],[1,0.75,0],[0.75,1,0],[0.5,1,0],[0.25,1,0],[0,0.75,0],[0,0.5,0],[0,0.25,0]];dashed=1;dashPattern=8 8;" vertex="1" parent="1">
            <mxGeometry x="170" y="300" width="740" height="670" as="geometry" />
          </mxCell>
        </object>
        <object placeholders="1" c4Name="Web Application" c4Type="Container" c4Technology="React" c4Description="Fluxo de Caixa" label="&lt;b&gt;%c4Name%&lt;/b&gt;&lt;div&gt;[%c4Type%: %c4Technology%]&lt;/div&gt;&lt;br&gt;&lt;div&gt;%c4Description%&lt;/div&gt;" id="QuoPMEiTbqhgPRIHgJIr-2">
          <mxCell style="rounded=1;whiteSpace=wrap;html=1;labelBackgroundColor=none;fillColor=#438DD5;fontColor=#ffffff;align=center;arcSize=10;strokeColor=#3C7FC0;metaEdit=1;metaData={&quot;c4Type&quot;:{&quot;editable&quot;:false}};points=[[0.25,0,0],[0.5,0,0],[0.75,0,0],[1,0.25,0],[1,0.5,0],[1,0.75,0],[0.75,1,0],[0.5,1,0],[0.25,1,0],[0,0.75,0],[0,0.5,0],[0,0.25,0]];" vertex="1" parent="1">
            <mxGeometry x="480" y="310" width="160" height="110.00000000000001" as="geometry" />
          </mxCell>
        </object>
        <object placeholders="1" c4Name="API Service" c4Type="Container" c4Technology="Dotnet 8" c4Description="Serviço de Controle de Lançamentos" label="&lt;b&gt;%c4Name%&lt;/b&gt;&lt;div&gt;[%c4Type%: %c4Technology%]&lt;/div&gt;&lt;br&gt;&lt;div&gt;%c4Description%&lt;/div&gt;" id="QuoPMEiTbqhgPRIHgJIr-3">
          <mxCell style="rounded=1;whiteSpace=wrap;html=1;labelBackgroundColor=none;fillColor=#438DD5;fontColor=#ffffff;align=center;arcSize=10;strokeColor=#3C7FC0;metaEdit=1;metaData={&quot;c4Type&quot;:{&quot;editable&quot;:false}};points=[[0.25,0,0],[0.5,0,0],[0.75,0,0],[1,0.25,0],[1,0.5,0],[1,0.75,0],[0.75,1,0],[0.5,1,0],[0.25,1,0],[0,0.75,0],[0,0.5,0],[0,0.25,0]];" vertex="1" parent="1">
            <mxGeometry x="220" y="510" width="160" height="110.00000000000001" as="geometry" />
          </mxCell>
        </object>
        <mxCell id="QuoPMEiTbqhgPRIHgJIr-4" style="edgeStyle=orthogonalEdgeStyle;rounded=0;orthogonalLoop=1;jettySize=auto;html=1;dashed=1;strokeColor=#707070;strokeWidth=2;fontColor=#707070;exitX=0;exitY=0.5;exitDx=0;exitDy=0;exitPerimeter=0;entryX=0.5;entryY=0;entryDx=0;entryDy=0;entryPerimeter=0;curved=1;" edge="1" parent="1" source="QuoPMEiTbqhgPRIHgJIr-2" target="QuoPMEiTbqhgPRIHgJIr-3">
          <mxGeometry relative="1" as="geometry">
            <mxPoint x="370" y="139" as="targetPoint" />
            <mxPoint x="20" y="300" as="sourcePoint" />
            <Array as="points">
              <mxPoint x="300" y="365" />
            </Array>
          </mxGeometry>
        </mxCell>
        <mxCell id="QuoPMEiTbqhgPRIHgJIr-5" value="Faz requisições&amp;nbsp;&lt;div&gt;HTTP/JSON&lt;/div&gt;" style="edgeLabel;html=1;align=center;verticalAlign=middle;resizable=0;points=[];rotation=0;" vertex="1" connectable="0" parent="QuoPMEiTbqhgPRIHgJIr-4">
          <mxGeometry x="-0.0309" y="2" relative="1" as="geometry">
            <mxPoint x="-2" y="-4" as="offset" />
          </mxGeometry>
        </mxCell>
        <object placeholders="1" c4Name="Worker Service" c4Type="Container" c4Technology="Dotnet 8" c4Description="Serviço de Consolidação de Dados" label="&lt;b&gt;%c4Name%&lt;/b&gt;&lt;div&gt;[%c4Type%: %c4Technology%]&lt;/div&gt;&lt;br&gt;&lt;div&gt;%c4Description%&lt;/div&gt;" id="QuoPMEiTbqhgPRIHgJIr-6">
          <mxCell style="rounded=1;whiteSpace=wrap;html=1;labelBackgroundColor=none;fillColor=#438DD5;fontColor=#ffffff;align=center;arcSize=10;strokeColor=#3C7FC0;metaEdit=1;metaData={&quot;c4Type&quot;:{&quot;editable&quot;:false}};points=[[0.25,0,0],[0.5,0,0],[0.75,0,0],[1,0.25,0],[1,0.5,0],[1,0.75,0],[0.75,1,0],[0.5,1,0],[0.25,1,0],[0,0.75,0],[0,0.5,0],[0,0.25,0]];" vertex="1" parent="1">
            <mxGeometry x="220" y="770" width="160" height="110.00000000000001" as="geometry" />
          </mxCell>
        </object>
        <object placeholders="1" c4Type="Database" c4Technology="Technology" c4Description="Lançamentos do Fluxo de Caixa" label="%c4Type%&lt;div style=&quot;font-size: 12px;&quot;&gt;[Container:&amp;nbsp;%c4Technology%]&lt;/div&gt;&lt;br style=&quot;font-size: 12px;&quot;&gt;&lt;div style=&quot;font-size: 12px;&quot;&gt;%c4Description%&lt;/div&gt;" id="QuoPMEiTbqhgPRIHgJIr-7">
          <mxCell style="shape=cylinder;whiteSpace=wrap;html=1;boundedLbl=1;rounded=0;labelBackgroundColor=none;fillColor=#438DD5;fontSize=12;fontColor=#ffffff;align=center;strokeColor=#3C7FC0;metaEdit=1;points=[[0.5,0,0],[1,0.25,0],[1,0.5,0],[1,0.75,0],[0.5,1,0],[0,0.75,0],[0,0.5,0],[0,0.25,0]];metaData={&quot;c4Type&quot;:{&quot;editable&quot;:false}};" vertex="1" parent="1">
            <mxGeometry x="500" y="500" width="170" height="100" as="geometry" />
          </mxCell>
        </object>
        <mxCell id="QuoPMEiTbqhgPRIHgJIr-8" style="edgeStyle=none;rounded=0;orthogonalLoop=1;jettySize=auto;html=1;dashed=1;strokeColor=#707070;strokeWidth=2;fontColor=#707070;exitX=1;exitY=0.5;exitDx=0;exitDy=0;exitPerimeter=0;entryX=0.022;entryY=0.624;entryDx=0;entryDy=0;entryPerimeter=0;" edge="1" parent="1" source="QuoPMEiTbqhgPRIHgJIr-3" target="QuoPMEiTbqhgPRIHgJIr-7">
          <mxGeometry relative="1" as="geometry">
            <mxPoint x="310" y="520" as="targetPoint" />
            <mxPoint x="310" y="430" as="sourcePoint" />
          </mxGeometry>
        </mxCell>
        <mxCell id="QuoPMEiTbqhgPRIHgJIr-9" value="Lê e grava&amp;nbsp;&lt;div&gt;lançamentos&amp;nbsp;&lt;/div&gt;" style="edgeLabel;html=1;align=center;verticalAlign=middle;resizable=0;points=[];rotation=0;" vertex="1" connectable="0" parent="QuoPMEiTbqhgPRIHgJIr-8">
          <mxGeometry x="-0.0309" y="2" relative="1" as="geometry">
            <mxPoint y="-12" as="offset" />
          </mxGeometry>
        </mxCell>
        <object placeholders="1" c4Type="Database" c4Technology="Technology" c4Description="Consolidação Diária" label="%c4Type%&lt;div style=&quot;font-size: 12px;&quot;&gt;[Container:&amp;nbsp;%c4Technology%]&lt;/div&gt;&lt;br style=&quot;font-size: 12px;&quot;&gt;&lt;div style=&quot;font-size: 12px;&quot;&gt;%c4Description%&lt;/div&gt;" id="QuoPMEiTbqhgPRIHgJIr-10">
          <mxCell style="shape=cylinder;whiteSpace=wrap;html=1;boundedLbl=1;rounded=0;labelBackgroundColor=none;fillColor=#438DD5;fontSize=12;fontColor=#ffffff;align=center;strokeColor=#3C7FC0;metaEdit=1;points=[[0.5,0,0],[1,0.25,0],[1,0.5,0],[1,0.75,0],[0.5,1,0],[0,0.75,0],[0,0.5,0],[0,0.25,0]];metaData={&quot;c4Type&quot;:{&quot;editable&quot;:false}};" vertex="1" parent="1">
            <mxGeometry x="510" y="775" width="170" height="100" as="geometry" />
          </mxCell>
        </object>
        <mxCell id="QuoPMEiTbqhgPRIHgJIr-13" style="edgeStyle=none;rounded=0;orthogonalLoop=1;jettySize=auto;html=1;dashed=1;strokeColor=#707070;strokeWidth=2;fontColor=#707070;entryX=0;entryY=0.5;entryDx=0;entryDy=0;entryPerimeter=0;exitX=1;exitY=0.5;exitDx=0;exitDy=0;exitPerimeter=0;" edge="1" parent="1" source="QuoPMEiTbqhgPRIHgJIr-6" target="QuoPMEiTbqhgPRIHgJIr-10">
          <mxGeometry relative="1" as="geometry">
            <mxPoint x="524" y="723.5" as="targetPoint" />
            <mxPoint x="380" y="725" as="sourcePoint" />
          </mxGeometry>
        </mxCell>
        <mxCell id="QuoPMEiTbqhgPRIHgJIr-14" value="Lê e grava&amp;nbsp;&lt;div&gt;lançamentos&amp;nbsp;&lt;/div&gt;" style="edgeLabel;html=1;align=center;verticalAlign=middle;resizable=0;points=[];rotation=0;" vertex="1" connectable="0" parent="QuoPMEiTbqhgPRIHgJIr-13">
          <mxGeometry x="-0.0309" y="2" relative="1" as="geometry">
            <mxPoint x="-3" y="-16" as="offset" />
          </mxGeometry>
        </mxCell>
        <mxCell id="QuoPMEiTbqhgPRIHgJIr-15" style="edgeStyle=none;rounded=0;orthogonalLoop=1;jettySize=auto;html=1;dashed=1;strokeColor=#707070;strokeWidth=2;fontColor=#707070;exitX=0.5;exitY=1;exitDx=0;exitDy=0;exitPerimeter=0;" edge="1" parent="1" source="QuoPMEiTbqhgPRIHgJIr-3" target="QuoPMEiTbqhgPRIHgJIr-6">
          <mxGeometry relative="1" as="geometry">
            <mxPoint x="310" y="520" as="targetPoint" />
            <mxPoint x="310" y="430" as="sourcePoint" />
          </mxGeometry>
        </mxCell>
        <mxCell id="QuoPMEiTbqhgPRIHgJIr-16" value="Faz requisições&amp;nbsp;&lt;div&gt;HTTP/JSON&lt;/div&gt;" style="edgeLabel;html=1;align=center;verticalAlign=middle;resizable=0;points=[];rotation=0;" vertex="1" connectable="0" parent="QuoPMEiTbqhgPRIHgJIr-15">
          <mxGeometry x="-0.0309" y="2" relative="1" as="geometry">
            <mxPoint x="-2" y="-4" as="offset" />
          </mxGeometry>
        </mxCell>
        <object placeholders="1" c4Name="API Service" c4Type="Container" c4Technology="Dotnet 8" c4Description="Serviço de Consolidação Diária" label="&lt;b&gt;%c4Name%&lt;/b&gt;&lt;div&gt;[%c4Type%: %c4Technology%]&lt;/div&gt;&lt;br&gt;&lt;div&gt;%c4Description%&lt;/div&gt;" id="QuoPMEiTbqhgPRIHgJIr-17">
          <mxCell style="rounded=1;whiteSpace=wrap;html=1;labelBackgroundColor=none;fillColor=#438DD5;fontColor=#ffffff;align=center;arcSize=10;strokeColor=#3C7FC0;metaEdit=1;metaData={&quot;c4Type&quot;:{&quot;editable&quot;:false}};points=[[0.25,0,0],[0.5,0,0],[0.75,0,0],[1,0.25,0],[1,0.5,0],[1,0.75,0],[0.75,1,0],[0.5,1,0],[0.25,1,0],[0,0.75,0],[0,0.5,0],[0,0.25,0]];" vertex="1" parent="1">
            <mxGeometry x="730" y="495" width="160" height="110.00000000000001" as="geometry" />
          </mxCell>
        </object>
        <mxCell id="QuoPMEiTbqhgPRIHgJIr-18" style="edgeStyle=orthogonalEdgeStyle;rounded=0;orthogonalLoop=1;jettySize=auto;html=1;dashed=1;strokeColor=#707070;strokeWidth=2;fontColor=#707070;exitX=1;exitY=0.5;exitDx=0;exitDy=0;exitPerimeter=0;entryX=0.556;entryY=0.02;entryDx=0;entryDy=0;entryPerimeter=0;curved=1;" edge="1" parent="1" source="QuoPMEiTbqhgPRIHgJIr-2" target="QuoPMEiTbqhgPRIHgJIr-17">
          <mxGeometry relative="1" as="geometry">
            <mxPoint x="310" y="520" as="targetPoint" />
            <mxPoint x="550" y="430" as="sourcePoint" />
          </mxGeometry>
        </mxCell>
        <mxCell id="QuoPMEiTbqhgPRIHgJIr-19" value="Faz requisições&amp;nbsp;&lt;div&gt;HTTP/JSON&lt;/div&gt;" style="edgeLabel;html=1;align=center;verticalAlign=middle;resizable=0;points=[];rotation=0;" vertex="1" connectable="0" parent="QuoPMEiTbqhgPRIHgJIr-18">
          <mxGeometry x="-0.0309" y="2" relative="1" as="geometry">
            <mxPoint x="-2" y="-4" as="offset" />
          </mxGeometry>
        </mxCell>
        <mxCell id="QuoPMEiTbqhgPRIHgJIr-20" style="edgeStyle=orthogonalEdgeStyle;rounded=0;orthogonalLoop=1;jettySize=auto;html=1;dashed=1;strokeColor=#707070;strokeWidth=2;fontColor=#707070;entryX=0.5;entryY=1;entryDx=0;entryDy=0;entryPerimeter=0;curved=1;" edge="1" parent="1" source="QuoPMEiTbqhgPRIHgJIr-10" target="QuoPMEiTbqhgPRIHgJIr-17">
          <mxGeometry relative="1" as="geometry">
            <mxPoint x="520" y="835" as="targetPoint" />
            <mxPoint x="390" y="835" as="sourcePoint" />
          </mxGeometry>
        </mxCell>
        <mxCell id="QuoPMEiTbqhgPRIHgJIr-21" value="Lê consolidação diária" style="edgeLabel;html=1;align=center;verticalAlign=middle;resizable=0;points=[];rotation=-37;" vertex="1" connectable="0" parent="QuoPMEiTbqhgPRIHgJIr-20">
          <mxGeometry x="-0.0309" y="2" relative="1" as="geometry">
            <mxPoint x="-8" y="-16" as="offset" />
          </mxGeometry>
        </mxCell>
        <mxCell id="QuoPMEiTbqhgPRIHgJIr-22" style="edgeStyle=orthogonalEdgeStyle;rounded=0;orthogonalLoop=1;jettySize=auto;html=1;dashed=1;strokeColor=#707070;strokeWidth=2;fontColor=#707070;entryX=0.5;entryY=1;entryDx=0;entryDy=0;entryPerimeter=0;exitX=0.009;exitY=0.582;exitDx=0;exitDy=0;exitPerimeter=0;curved=1;" edge="1" parent="1" source="QuoPMEiTbqhgPRIHgJIr-6" target="rJItDOL2bvnCdjiZiPUv-2">
          <mxGeometry relative="1" as="geometry">
            <mxPoint x="370" y="139" as="targetPoint" />
            <mxPoint x="60" y="570" as="sourcePoint" />
          </mxGeometry>
        </mxCell>
        <mxCell id="QuoPMEiTbqhgPRIHgJIr-23" value="Envia notificações para [email]" style="edgeLabel;html=1;align=center;verticalAlign=middle;resizable=0;points=[];rotation=0;" vertex="1" connectable="0" parent="QuoPMEiTbqhgPRIHgJIr-22">
          <mxGeometry x="-0.0309" y="2" relative="1" as="geometry">
            <mxPoint x="12" y="-127" as="offset" />
          </mxGeometry>
        </mxCell>
        <mxCell id="QuoPMEiTbqhgPRIHgJIr-24" style="edgeStyle=none;rounded=0;orthogonalLoop=1;jettySize=auto;html=1;dashed=1;strokeColor=#707070;strokeWidth=2;fontColor=#707070;exitX=0.25;exitY=1;exitDx=0;exitDy=0;exitPerimeter=0;entryX=0.25;entryY=0;entryDx=0;entryDy=0;entryPerimeter=0;" edge="1" parent="1" source="rJItDOL2bvnCdjiZiPUv-1" target="QuoPMEiTbqhgPRIHgJIr-2">
          <mxGeometry relative="1" as="geometry">
            <mxPoint x="550" y="370" as="targetPoint" />
            <mxPoint x="550" y="220" as="sourcePoint" />
          </mxGeometry>
        </mxCell>
        <mxCell id="QuoPMEiTbqhgPRIHgJIr-25" value="Cadastra, altera, &lt;br&gt;exclui e consulta&lt;br&gt;&amp;nbsp;lançamentos no&amp;nbsp;&lt;div&gt;fluxo de caixa&lt;/div&gt;" style="edgeLabel;html=1;align=center;verticalAlign=middle;resizable=0;points=[];rotation=0;" vertex="1" connectable="0" parent="QuoPMEiTbqhgPRIHgJIr-24">
          <mxGeometry x="-0.0309" y="2" relative="1" as="geometry">
            <mxPoint x="-48" y="-8" as="offset" />
          </mxGeometry>
        </mxCell>
        <mxCell id="QuoPMEiTbqhgPRIHgJIr-26" style="edgeStyle=none;rounded=0;orthogonalLoop=1;jettySize=auto;html=1;dashed=1;strokeColor=#707070;strokeWidth=2;fontColor=#707070;exitX=0.687;exitY=1;exitDx=0;exitDy=0;exitPerimeter=0;entryX=0.75;entryY=0;entryDx=0;entryDy=0;entryPerimeter=0;" edge="1" parent="1" source="rJItDOL2bvnCdjiZiPUv-1" target="QuoPMEiTbqhgPRIHgJIr-2">
          <mxGeometry relative="1" as="geometry">
            <mxPoint x="530" y="320" as="targetPoint" />
            <mxPoint x="543" y="200" as="sourcePoint" />
          </mxGeometry>
        </mxCell>
        <mxCell id="QuoPMEiTbqhgPRIHgJIr-27" value="Cadastra, altera, &lt;br&gt;exclui e consulta&lt;br&gt;&amp;nbsp;lançamentos no&amp;nbsp;&lt;div&gt;fluxo de caixa&lt;/div&gt;" style="edgeLabel;html=1;align=center;verticalAlign=middle;resizable=0;points=[];rotation=0;" vertex="1" connectable="0" parent="QuoPMEiTbqhgPRIHgJIr-26">
          <mxGeometry x="-0.0309" y="2" relative="1" as="geometry">
            <mxPoint x="48" y="-8" as="offset" />
          </mxGeometry>
        </mxCell>
        <mxCell id="BPu9uhgT8e6ERmK8Gh-e-1" value="&lt;b&gt;[Container] Fluxo de Caixa&lt;br&gt;&lt;/b&gt;" style="text;html=1;align=left;verticalAlign=middle;resizable=0;points=[];autosize=1;fontColor=#666666;" vertex="1" parent="1">
          <mxGeometry x="-70" y="1010" width="180" height="30" as="geometry" />
        </mxCell>
      </root>
    </mxGraphModel>
  </diagram>
</mxfile>
